{
  "source": "C:\\Users\\Peter\\Desktop\\stuff\\MIUN\\quantitative_research\\video_compression\\videos\\BVI-HD\\BVI-HD_CDVL_videos\\ORIG\\Hamster_1920x1080_60fps.mp4",
  "output": "C:\\Users\\Peter\\Desktop\\stuff\\MIUN\\quantitative_research\\video_compression\\compressed_videos\\BVI-HD\\vp9\\2\\Hamster_1920x1080_60fps_vp9.webm",
  "codec": "vp9",
  "ok": "Input #0, mov,mp4,m4a,3gp,3g2,mj2, from 'C:\\Users\\Peter\\Desktop\\stuff\\MIUN\\quantitative_research\\video_compression\\videos\\BVI-HD\\BVI-HD_CDVL_videos\\ORIG\\Hamster_1920x1080_60fps.mp4':\n  Metadata:\n    major_brand     : isom\n    minor_version   : 512\n    compatible_brands: isomiso2avc1mp41\n    encoder         : Lavf54.28.101\n  Duration: 00:00:05.00, start: 0.000000, bitrate: 208485 kb/s\n  Stream #0:0[0x1](und): Video: h264 (High 4:4:4 Predictive) (avc1 / 0x31637661), yuv420p(progressive), 1920x1080, 208481 kb/s, 60 fps, 60 tbr, 60 tbn (default)\n    Metadata:\n      handler_name    : VideoHandler\n      vendor_id       : [0][0][0][0]\n[out#0/webm @ 000001d7b24b9880] Codec AVOption b:a (set bitrate (in bits/s)) has not been used for any stream. The most likely reason is either wrong type (e.g. a video option with no video streams) or that it is a private option of some decoder which was not actually used for any stream.\nStream mapping:\n  Stream #0:0 -> #0:0 (h264 (native) -> vp9 (libvpx-vp9))\nPress [q] to stop, [?] for help\n[libvpx-vp9 @ 000001d7b24ccbc0] v1.15.2-100-g40561f514\nOutput #0, webm, to 'C:\\Users\\Peter\\Desktop\\stuff\\MIUN\\quantitative_research\\video_compression\\compressed_videos\\BVI-HD\\vp9\\2\\Hamster_1920x1080_60fps_vp9.webm':\n  Metadata:\n    major_brand     : isom\n    minor_version   : 512\n    compatible_brands: isomiso2avc1mp41\n    encoder         : Lavf62.3.100\n  Stream #0:0(und): Video: vp9, yuv420p(tv, progressive), 1920x1080, q=2-31, 2000 kb/s, 60 fps, 1k tbn (default)\n    Metadata:\n      encoder         : Lavc62.11.100 libvpx-vp9\n      handler_name    : VideoHandler\n      vendor_id       : [0][0][0][0]\n    Side data:\n      cpb: bitrate max/min/avg: 0/0/0 buffer size: 2000000 vbv_delay: N/A\nframe=    0 fps=0.0 q=0.0 size=       0KiB time=N/A bitrate=N/A speed=N/A elapsed=0:00:00.56    \nframe=    1 fps=0.7 q=35.0 size=       1KiB time=N/A bitrate=N/A speed=N/A elapsed=0:00:01.35    \nframe=    6 fps=2.9 q=49.0 size=       1KiB time=00:00:00.10 bitrate=  50.6kbits/s speed=0.0481x elapsed=0:00:02.08    \nframe=    9 fps=3.3 q=48.0 size=       1KiB time=00:00:00.15 bitrate=  33.8kbits/s speed=0.0555x elapsed=0:00:02.70    \nframe=   12 fps=3.7 q=52.0 size=       1KiB time=00:00:00.20 bitrate=  25.3kbits/s speed=0.0618x elapsed=0:00:03.23    \nframe=   14 fps=3.7 q=52.0 size=       1KiB time=00:00:00.23 bitrate=  21.7kbits/s speed=0.062x elapsed=0:00:03.76    \nframe=   18 fps=4.1 q=50.0 size=       1KiB time=00:00:00.28 bitrate=  17.9kbits/s speed=0.0645x elapsed=0:00:04.39    \nframe=   21 fps=4.1 q=50.0 size=       1KiB time=00:00:00.35 bitrate=  14.5kbits/s speed=0.0676x elapsed=0:00:05.17    \nframe=   24 fps=4.0 q=50.0 size=       1KiB time=00:00:00.40 bitrate=  12.7kbits/s speed=0.0674x elapsed=0:00:05.93    \nframe=   27 fps=4.1 q=50.0 size=       1KiB time=00:00:00.45 bitrate=  11.3kbits/s speed=0.068x elapsed=0:00:06.61    \nframe=   30 fps=4.2 q=51.0 size=       1KiB time=00:00:00.50 bitrate=  10.1kbits/s speed=0.0693x elapsed=0:00:07.21    \nframe=   33 fps=4.3 q=52.0 size=       1KiB time=00:00:00.55 bitrate=   9.2kbits/s speed=0.071x elapsed=0:00:07.74    \nframe=   36 fps=4.3 q=52.0 size=       1KiB time=00:00:00.60 bitrate=   8.4kbits/s speed=0.0719x elapsed=0:00:08.34    \nframe=   39 fps=4.3 q=49.0 size=       1KiB time=00:00:00.63 bitrate=   8.0kbits/s speed=0.0699x elapsed=0:00:09.06    \nframe=   41 fps=4.1 q=48.0 size=       1KiB time=00:00:00.68 bitrate=   7.4kbits/s speed=0.0688x elapsed=0:00:09.93    \nframe=   44 fps=4.1 q=48.0 size=       1KiB time=00:00:00.73 bitrate=   6.9kbits/s speed=0.0681x elapsed=0:00:10.77    \nframe=   46 fps=4.0 q=48.0 size=       1KiB time=00:00:00.76 bitrate=   6.6kbits/s speed=0.0674x elapsed=0:00:11.37    \nframe=   48 fps=4.0 q=49.0 size=       1KiB time=00:00:00.80 bitrate=   6.3kbits/s speed=0.0659x elapsed=0:00:12.13    \nframe=   52 fps=4.1 q=46.0 size=       1KiB time=00:00:00.85 bitrate=   6.0kbits/s speed=0.0664x elapsed=0:00:12.80    \nframe=   54 fps=4.0 q=46.0 size=       1KiB time=00:00:00.88 bitrate=   5.7kbits/s speed=0.0652x elapsed=0:00:13.54    \nframe=   56 fps=3.9 q=46.0 size=       1KiB time=00:00:00.93 bitrate=   5.4kbits/s speed=0.0647x elapsed=0:00:14.42    \nframe=   60 fps=4.0 q=45.0 size=       1KiB time=00:00:00.98 bitrate=   5.1kbits/s speed=0.0651x elapsed=0:00:15.10    \nframe=   62 fps=3.9 q=45.0 size=       1KiB time=00:00:01.03 bitrate=   4.9kbits/s speed=0.0651x elapsed=0:00:15.87    \nframe=   64 fps=3.9 q=43.0 size=       1KiB time=00:00:01.06 bitrate=   4.7kbits/s speed=0.0648x elapsed=0:00:16.45    \nframe=   66 fps=3.9 q=44.0 size=       1KiB time=00:00:01.10 bitrate=   4.6kbits/s speed=0.0643x elapsed=0:00:17.09    \nframe=   68 fps=3.8 q=46.0 size=       1KiB time=00:00:01.13 bitrate=   4.5kbits/s speed=0.0635x elapsed=0:00:17.85    \nframe=   71 fps=3.8 q=48.0 size=       1KiB time=00:00:01.16 bitrate=   4.3kbits/s speed=0.0631x elapsed=0:00:18.48    \nframe=   74 fps=3.8 q=48.0 size=       1KiB time=00:00:01.21 bitrate=   4.2kbits/s speed=0.0632x elapsed=0:00:19.26    \nframe=   77 fps=3.9 q=49.0 size=       1KiB time=00:00:01.28 bitrate=   3.9kbits/s speed=0.0642x elapsed=0:00:19.98    \nframe=   81 fps=3.9 q=51.0 size=       1KiB time=00:00:01.31 bitrate=   3.8kbits/s speed=0.0636x elapsed=0:00:20.69    \nframe=   82 fps=3.8 q=52.0 size=       1KiB time=00:00:01.36 bitrate=   3.7kbits/s speed=0.0637x elapsed=0:00:21.45    \nframe=   84 fps=3.8 q=52.0 size=       1KiB time=00:00:01.40 bitrate=   3.6kbits/s speed=0.0637x elapsed=0:00:21.97    \nframe=   86 fps=3.8 q=52.0 size=       1KiB time=00:00:01.43 bitrate=   3.5kbits/s speed=0.0634x elapsed=0:00:22.59    \nframe=   88 fps=3.8 q=52.0 size=       1KiB time=00:00:01.46 bitrate=   3.5kbits/s speed=0.0634x elapsed=0:00:23.12    \nframe=   89 fps=3.8 q=52.0 size=       1KiB time=00:00:01.48 bitrate=   3.4kbits/s speed=0.0626x elapsed=0:00:23.70    \nframe=   92 fps=3.8 q=53.0 size=       1KiB time=00:00:01.53 bitrate=   3.3kbits/s speed=0.0633x elapsed=0:00:24.22    \nframe=   94 fps=3.8 q=53.0 size=       1KiB time=00:00:01.56 bitrate=   3.2kbits/s speed=0.0632x elapsed=0:00:24.78    \nframe=   96 fps=3.8 q=53.0 size=       1KiB time=00:00:01.60 bitrate=   3.2kbits/s speed=0.0632x elapsed=0:00:25.33    \nframe=   97 fps=3.8 q=38.0 size=       1KiB time=00:00:01.61 bitrate=   3.1kbits/s speed=0.0626x elapsed=0:00:25.84    \nframe=   99 fps=3.8 q=53.0 size=       1KiB time=00:00:01.65 bitrate=   3.1kbits/s speed=0.0626x elapsed=0:00:26.36    \nframe=  100 fps=3.7 q=53.0 size=       1KiB time=00:00:01.66 bitrate=   3.0kbits/s speed=0.062x elapsed=0:00:26.89    \nframe=  102 fps=3.7 q=54.0 size=       1KiB time=00:00:01.70 bitrate=   3.0kbits/s speed=0.0618x elapsed=0:00:27.50    \nframe=  103 fps=3.7 q=54.0 size=       1KiB time=00:00:01.71 bitrate=   2.9kbits/s speed=0.0612x elapsed=0:00:28.05    \nframe=  104 fps=3.6 q=54.0 size=       1KiB time=00:00:01.73 bitrate=   2.9kbits/s speed=0.0607x elapsed=0:00:28.56    \nframe=  106 fps=3.6 q=53.0 size=       1KiB time=00:00:01.76 bitrate=   2.9kbits/s speed=0.0607x elapsed=0:00:29.12    \nframe=  108 fps=3.6 q=53.0 size=       1KiB time=00:00:01.80 bitrate=   2.8kbits/s speed=0.0607x elapsed=0:00:29.64    \nframe=  109 fps=3.6 q=38.0 size=       1KiB time=00:00:01.81 bitrate=   2.8kbits/s speed=0.0602x elapsed=0:00:30.19    \nframe=  112 fps=3.6 q=53.0 size=       1KiB time=00:00:01.86 bitrate=   2.7kbits/s speed=0.0608x elapsed=0:00:30.72    \nframe=  114 fps=3.6 q=53.0 size=       1KiB time=00:00:01.90 bitrate=   2.7kbits/s speed=0.0608x elapsed=0:00:31.23    \nframe=  117 fps=3.7 q=53.0 size=       1KiB time=00:00:01.95 bitrate=   2.6kbits/s speed=0.0614x elapsed=0:00:31.75    \nframe=  119 fps=3.7 q=38.0 size=       1KiB time=00:00:01.96 bitrate=   2.6kbits/s speed=0.0609x elapsed=0:00:32.28    \nframe=  121 fps=3.7 q=51.0 size=       1KiB time=00:00:02.01 bitrate=   2.5kbits/s speed=0.0615x elapsed=0:00:32.81    \nframe=  123 fps=3.7 q=51.0 size=       1KiB time=00:00:02.05 bitrate=   2.5kbits/s speed=0.0614x elapsed=0:00:33.38    \nframe=  125 fps=3.7 q=51.0 size=       1KiB time=00:00:02.08 bitrate=   2.4kbits/s speed=0.0614x elapsed=0:00:33.92    \nframe=  127 fps=3.7 q=52.0 size=       1KiB time=00:00:02.11 bitrate=   2.4kbits/s speed=0.0614x elapsed=0:00:34.46    \nframe=  128 fps=3.7 q=52.0 size=       1KiB time=00:00:02.13 bitrate=   2.4kbits/s speed=0.061x elapsed=0:00:34.98    \nframe=  130 fps=3.7 q=52.0 size=     256KiB time=00:00:02.16 bitrate= 967.9kbits/s speed=0.061x elapsed=0:00:35.50    \nframe=  133 fps=3.7 q=51.0 size=     256KiB time=00:00:02.21 bitrate= 946.1kbits/s speed=0.0615x elapsed=0:00:36.02    \nframe=  135 fps=3.7 q=51.0 size=     256KiB time=00:00:02.25 bitrate= 932.1kbits/s speed=0.0615x elapsed=0:00:36.55    \nframe=  137 fps=3.7 q=51.0 size=     256KiB time=00:00:02.28 bitrate= 918.5kbits/s speed=0.0616x elapsed=0:00:37.08    \nframe=  139 fps=3.7 q=51.0 size=     256KiB time=00:00:02.31 bitrate= 905.2kbits/s speed=0.0616x elapsed=0:00:37.61    \nframe=  141 fps=3.7 q=51.0 size=     256KiB time=00:00:02.35 bitrate= 892.4kbits/s speed=0.0616x elapsed=0:00:38.13    \nframe=  142 fps=3.7 q=50.0 size=     256KiB time=00:00:02.36 bitrate= 886.1kbits/s speed=0.0612x elapsed=0:00:38.66    \nframe=  144 fps=3.7 q=50.0 size=     256KiB time=00:00:02.40 bitrate= 873.8kbits/s speed=0.0612x elapsed=0:00:39.18    \nframe=  146 fps=3.7 q=49.0 size=     256KiB time=00:00:02.43 bitrate= 861.8kbits/s speed=0.0613x elapsed=0:00:39.70    \nframe=  149 fps=3.7 q=50.0 size=     256KiB time=00:00:02.48 bitrate= 844.5kbits/s speed=0.0617x elapsed=0:00:40.23    \nframe=  151 fps=3.7 q=49.0 size=     256KiB time=00:00:02.51 bitrate= 833.3kbits/s speed=0.0617x elapsed=0:00:40.79    \nframe=  153 fps=3.7 q=48.0 size=     256KiB time=00:00:02.55 bitrate= 822.4kbits/s speed=0.0617x elapsed=0:00:41.33    \nframe=  156 fps=3.7 q=47.0 size=     256KiB time=00:00:02.60 bitrate= 806.6kbits/s speed=0.0621x elapsed=0:00:41.85    \nframe=  158 fps=3.7 q=47.0 size=     256KiB time=00:00:02.63 bitrate= 796.4kbits/s speed=0.0621x elapsed=0:00:42.38    \nframe=  160 fps=3.7 q=48.0 size=     256KiB time=00:00:02.66 bitrate= 786.4kbits/s speed=0.0622x elapsed=0:00:42.89    \nframe=  163 fps=3.8 q=49.0 size=     256KiB time=00:00:02.71 bitrate= 772.0kbits/s speed=0.0626x elapsed=0:00:43.43    \nframe=  165 fps=3.8 q=49.0 size=     256KiB time=00:00:02.75 bitrate= 762.6kbits/s speed=0.0625x elapsed=0:00:43.98    \nframe=  169 fps=3.8 q=49.0 size=     256KiB time=00:00:02.81 bitrate= 744.6kbits/s speed=0.0633x elapsed=0:00:44.50    \nframe=  172 fps=3.8 q=49.0 size=     256KiB time=00:00:02.86 bitrate= 731.6kbits/s speed=0.0636x elapsed=0:00:45.04    \nframe=  175 fps=3.8 q=49.0 size=     256KiB time=00:00:02.91 bitrate= 719.0kbits/s speed=0.064x elapsed=0:00:45.57    \nframe=  176 fps=3.8 q=35.0 size=     256KiB time=00:00:02.93 bitrate= 714.9kbits/s speed=0.0635x elapsed=0:00:46.17    \nframe=  179 fps=3.8 q=49.0 size=     256KiB time=00:00:02.98 bitrate= 703.0kbits/s speed=0.0639x elapsed=0:00:46.69    \nframe=  182 fps=3.9 q=50.0 size=     256KiB time=00:00:03.03 bitrate= 691.4kbits/s speed=0.0642x elapsed=0:00:47.22    \nframe=  186 fps=3.9 q=50.0 size=     256KiB time=00:00:03.10 bitrate= 676.5kbits/s speed=0.0649x elapsed=0:00:47.76    \nframe=  187 fps=3.9 q=50.0 size=     256KiB time=00:00:03.11 bitrate= 672.9kbits/s speed=0.0646x elapsed=0:00:48.28    \nframe=  190 fps=3.9 q=50.0 size=     256KiB time=00:00:03.16 bitrate= 662.3kbits/s speed=0.0649x elapsed=0:00:48.83    \nframe=  192 fps=3.9 q=49.0 size=     256KiB time=00:00:03.20 bitrate= 655.4kbits/s speed=0.0648x elapsed=0:00:49.35    \nframe=  194 fps=3.9 q=49.0 size=     256KiB time=00:00:03.23 bitrate= 648.6kbits/s speed=0.0648x elapsed=0:00:49.88    \nframe=  196 fps=3.9 q=50.0 size=     256KiB time=00:00:03.26 bitrate= 642.0kbits/s speed=0.0648x elapsed=0:00:50.39    \nframe=  198 fps=3.9 q=50.0 size=     256KiB time=00:00:03.30 bitrate= 635.5kbits/s speed=0.0648x elapsed=0:00:50.92    \nframe=  199 fps=3.9 q=50.0 size=     256KiB time=00:00:03.31 bitrate= 632.3kbits/s speed=0.0644x elapsed=0:00:51.47    \nframe=  202 fps=3.9 q=50.0 size=     256KiB time=00:00:03.36 bitrate= 622.9kbits/s speed=0.0647x elapsed=0:00:52.01    \nframe=  204 fps=3.9 q=51.0 size=     256KiB time=00:00:03.40 bitrate= 616.8kbits/s speed=0.0647x elapsed=0:00:52.54    \nframe=  206 fps=3.9 q=52.0 size=     256KiB time=00:00:03.43 bitrate= 610.8kbits/s speed=0.0646x elapsed=0:00:53.13    \nframe=  208 fps=3.9 q=53.0 size=     256KiB time=00:00:03.46 bitrate= 604.9kbits/s speed=0.0646x elapsed=0:00:53.69    \nframe=  210 fps=3.9 q=54.0 size=     256KiB time=00:00:03.50 bitrate= 599.2kbits/s speed=0.0645x elapsed=0:00:54.22    \nframe=  212 fps=3.9 q=38.0 size=     256KiB time=00:00:03.53 bitrate= 593.5kbits/s speed=0.0646x elapsed=0:00:54.73    \nframe=  215 fps=3.9 q=56.0 size=     256KiB time=00:00:03.56 bitrate= 588.0kbits/s speed=0.0645x elapsed=0:00:55.25    \nframe=  217 fps=3.9 q=56.0 size=     256KiB time=00:00:03.61 bitrate= 579.9kbits/s speed=0.0648x elapsed=0:00:55.85    \nframe=  220 fps=3.9 q=58.0 size=     256KiB time=00:00:03.66 bitrate= 572.0kbits/s speed=0.065x elapsed=0:00:56.38    \nframe=  223 fps=3.9 q=57.0 size=     256KiB time=00:00:03.71 bitrate= 564.3kbits/s speed=0.0653x elapsed=0:00:56.88    \nframe=  226 fps=3.9 q=57.0 size=     256KiB time=00:00:03.76 bitrate= 556.8kbits/s speed=0.0656x elapsed=0:00:57.42    \nframe=  228 fps=3.9 q=59.0 size=     256KiB time=00:00:03.80 bitrate= 551.9kbits/s speed=0.0656x elapsed=0:00:57.96    \nframe=  230 fps=3.9 q=59.0 size=     256KiB time=00:00:03.83 bitrate= 547.1kbits/s speed=0.0655x elapsed=0:00:58.48    \nframe=  233 fps=4.0 q=59.0 size=     256KiB time=00:00:03.88 bitrate= 540.0kbits/s speed=0.0658x elapsed=0:00:58.98    \nframe=  235 fps=3.9 q=59.0 size=     256KiB time=00:00:03.91 bitrate= 535.4kbits/s speed=0.0658x elapsed=0:00:59.50    \nframe=  238 fps=4.0 q=60.0 size=     256KiB time=00:00:03.96 bitrate= 528.7kbits/s speed=0.0661x elapsed=0:01:00.01    \nframe=  241 fps=4.0 q=60.0 size=     256KiB time=00:00:04.01 bitrate= 522.1kbits/s speed=0.0663x elapsed=0:01:00.59    \nframe=  243 fps=4.0 q=60.0 size=     256KiB time=00:00:04.05 bitrate= 517.8kbits/s speed=0.0663x elapsed=0:01:01.11    \nframe=  245 fps=4.0 q=59.0 size=     256KiB time=00:00:04.08 bitrate= 513.6kbits/s speed=0.0663x elapsed=0:01:01.63    \nframe=  247 fps=4.0 q=59.0 size=     256KiB time=00:00:04.11 bitrate= 509.4kbits/s speed=0.0662x elapsed=0:01:02.19    \nframe=  250 fps=4.0 q=57.0 size=     256KiB time=00:00:04.16 bitrate= 503.3kbits/s speed=0.0664x elapsed=0:01:02.70    \nframe=  253 fps=4.0 q=56.0 size=     256KiB time=00:00:04.21 bitrate= 497.3kbits/s speed=0.0667x elapsed=0:01:03.23    \nframe=  255 fps=4.0 q=55.0 size=     256KiB time=00:00:04.25 bitrate= 493.4kbits/s speed=0.0667x elapsed=0:01:03.75    \nframe=  258 fps=4.0 q=53.0 size=     768KiB time=00:00:04.30 bitrate=1463.1kbits/s speed=0.0669x elapsed=0:01:04.27    \nframe=  262 fps=4.0 q=52.0 size=     768KiB time=00:00:04.35 bitrate=1446.3kbits/s speed=0.0671x elapsed=0:01:04.82    \nframe=  264 fps=4.0 q=51.0 size=     768KiB time=00:00:04.40 bitrate=1429.9kbits/s speed=0.0673x elapsed=0:01:05.35    \nframe=  268 fps=4.1 q=51.0 size=     768KiB time=00:00:04.46 bitrate=1408.5kbits/s speed=0.0678x elapsed=0:01:05.88    \nframe=  271 fps=4.1 q=52.0 size=     768KiB time=00:00:04.50 bitrate=1398.1kbits/s speed=0.0678x elapsed=0:01:06.40    \nframe=  273 fps=4.1 q=51.0 size=     768KiB time=00:00:04.55 bitrate=1382.7kbits/s speed=0.0679x elapsed=0:01:06.96    \nframe=  276 fps=4.1 q=50.0 size=     768KiB time=00:00:04.60 bitrate=1367.7kbits/s speed=0.0682x elapsed=0:01:07.48    \nframe=  276 fps=4.1 q=50.0 size=     768KiB time=00:00:04.60 bitrate=1367.7kbits/s speed=0.0676x elapsed=0:01:08.00    \nframe=  276 fps=4.0 q=50.0 size=     768KiB time=00:00:04.60 bitrate=1367.7kbits/s speed=0.0671x elapsed=0:01:08.53    \nframe=  276 fps=4.0 q=50.0 size=     768KiB time=00:00:04.60 bitrate=1367.7kbits/s speed=0.0666x elapsed=0:01:09.06    \nframe=  276 fps=4.0 q=50.0 size=     768KiB time=00:00:04.60 bitrate=1367.7kbits/s speed=0.0661x elapsed=0:01:09.59    \nframe=  276 fps=3.9 q=50.0 size=     768KiB time=00:00:04.60 bitrate=1367.7kbits/s speed=0.0655x elapsed=0:01:10.17    \nframe=  276 fps=3.9 q=50.0 size=     768KiB time=00:00:04.60 bitrate=1367.7kbits/s speed=0.0651x elapsed=0:01:10.70    \nframe=  276 fps=3.9 q=50.0 size=     768KiB time=00:00:04.60 bitrate=1367.7kbits/s speed=0.0646x elapsed=0:01:11.23    \n[out#0/webm @ 000001d7b24b9880] video:1143KiB audio:0KiB subtitle:0KiB other streams:0KiB global headers:0KiB muxing overhead: 0.241571%\nframe=  300 fps=4.2 q=47.0 Lsize=    1146KiB time=00:00:05.00 bitrate=1877.6kbits/s speed=0.0701x elapsed=0:01:11.29    \n",
  "seconds": 72.32797718048096,
  "probe_out": {}
}